# xmcd
#
# Track frame offsets: 
#        150
#        24766
#        52012
#        79219
#        94562
#        111546
#        134769
#        159129
#        178322
#        206044
#        223249
#        239506
#        252690
#        278561
#        300065
#        323352
#
# Disc length: 4523 seconds
#
# Revision: 2
# Processed by: cddbd v1.5.2PL0 Copyright (c) Steve Scherf et al.
# Submitted via: ExactAudioCopy v0.99pb3
#
DISCID=e011a910
DTITLE=The Lines - Flood Bank
DYEAR=1982
DGENRE=Alternative
TTITLE0=Come Home
TTITLE1=Stripe
TTITLE2=Airlift
TTITLE3=Blow a Kiss
TTITLE4=Instincticide
TTITLE5=Bucket Brigade
TTITLE6=Tunnel Party
TTITLE7=Ursa Major
TTITLE8=The Landing
TTITLE9=The Gate
TTITLE10=Have a Heart
TTITLE11=No Hiding
TTITLE12=Flood Bank
TTITLE13=Fury
TTITLE14=Ultramarine
TTITLE15=Disenchanted
EXTD=
EXTT0=
EXTT1=
EXTT2=
EXTT3=
EXTT4=
EXTT5=
EXTT6=
EXTT7=
EXTT8=
EXTT9=
EXTT10=
EXTT11=
EXTT12=
EXTT13=
EXTT14=
EXTT15=
PLAYORDER=
